<svg xmlns="http://www.w3.org/2000/svg" viewBox="0 0 1600 520"><rect width="1600" height="520" fill="#faf6ee"/><path fill="#d9e2cf" stroke="#a8b598" stroke-width="2" d="M0 430 Q120 350 260 410 Q340 440 420 430 Z"/><path fill="#c6d4b8" stroke="#a8b598" stroke-width="2" d="M-40 445 Q90 380 220 430 Q300 460 380 448 Z"/><path fill="#dfe6d2" stroke="#b3bf9f" stroke-width="2" d="M1180 440 Q1260 380 1360 420 Q1450 450 1600 430 L1600 520 L1180 520 Z"/><rect width="1600" height="80" y="440" fill="#e8efe9"/><path fill="none" stroke="#c2d4c8" stroke-width="3" d="M0 460 Q200 452 400 460 T800 460 T1200 460 T1600 460"/><g><path fill="#8a4b2d" d="M150 480 Q220 505 300 480 L285 505 Q220 520 165 505 Z"/><rect width="120" height="20" x="165" y="462" fill="#b2543a" rx="8"/><rect width="120" height="6" x="165" y="462" fill="#d97357" rx="3"/><line x1="185" x2="185" y1="462" y2="480" stroke="#6e3620" stroke-width="3"/><line x1="265" x2="265" y1="462" y2="480" stroke="#6e3620" stroke-width="3"/></g><g fill="#f2e4c8" stroke="#b99b6b" stroke-width="3"><rect width="220" height="160" x="700" y="280"/><path fill="#e5d3ac" d="M725 440 v-70 a20 20 0 0 1 40 0 v70"/><path fill="#e5d3ac" d="M795 440 v-70 a20 20 0 0 1 40 0 v70"/><rect width="260" height="80" x="680" y="200"/><path fill="#e5d3ac" d="M700 280 v-50 a15 15 0 0 1 30 0 v50"/><path fill="#e5d3ac" d="M750 280 v-50 a15 15 0 0 1 30 0 v50"/><path fill="#e5d3ac" d="M850 280 v-50 a15 15 0 0 1 30 0 v50"/><path fill="#e5d3ac" d="M800 280 v-50 a15 15 0 0 1 30 0 v50"/><g><rect width="26" height="320" x="668" y="120"/><path fill="#e9d6ad" d="M664 120 q17 -34 34 0 Z"/><circle cx="681" cy="82" r="4" fill="#b99b6b"/><rect width="34" height="10" x="664" y="200" fill="#e0c99b"/></g><g><rect width="26" height="320" x="926" y="120"/><path fill="#e9d6ad" d="M922 120 q17 -34 34 0 Z"/><circle cx="939" cy="82" r="4" fill="#b99b6b"/><rect width="34" height="10" x="922" y="200" fill="#e0c99b"/></g></g><g fill="#f5e8cf" stroke="#c2a878" stroke-width="2.5"><rect width="240" height="140" x="420" y="300"/><path fill="#eeddb8" d="M420 300 q30 -30 60 0 q30 -30 60 0 q30 -30 60 0 q30 -30 60 0 Z"/><rect width="24" height="40" x="440" y="330" fill="#e5d3ac" rx="10"/><rect width="24" height="40" x="500" y="330" fill="#e5d3ac" rx="10"/><rect width="24" height="40" x="560" y="330" fill="#e5d3ac" rx="10"/><rect width="24" height="40" x="620" y="330" fill="#e5d3ac" rx="10"/></g><g fill="#7fa06b" stroke="#5f7f4f" stroke-width="2"><circle cx="380" cy="410" r="28"/><circle cx="990" cy="405" r="32"/><circle cx="1080" cy="415" r="24"/><circle cx="1300" cy="420" r="30"/><circle cx="1450" cy="425" r="22"/></g><path fill="none" stroke="#d8c8a6" stroke-width="2" d="M0 440 Q400 428 800 438 Q1200 448 1600 436 L1600 520 L0 520 Z"/></svg>